<svg xmlns="http://www.w3.org/2000/svg" viewBox="0 0 138.46 59.39"><defs><style>.cls-1{fill:#44bfef;}.cls-2{fill:#ffd100;}.cls-3{fill:#fff;}.cls-4{fill:#2a2a2a;}</style></defs><title>hellolamppost_logo</title><g id="Layer_2" data-name="Layer 2"><g id="Content"><path class="cls-1" d="M131,33.41,138.46,26V55.92A3.47,3.47,0,0,1,135,59.39H13.39a3.47,3.47,0,0,1-3.47-3.47v-19a3.47,3.47,0,0,1,3.47-3.47Z"/><path class="cls-2" d="M0,26V3.47A3.47,3.47,0,0,1,3.47,0H78.84a3.47,3.47,0,0,1,3.47,3.47v19A3.47,3.47,0,0,1,78.84,26H7.43L0,33.41Z"/><path class="cls-3" d="M20.81,40.84h3.08v8.4h5.37v2.7H20.81Z"/><path class="cls-3" d="M35.84,40.76h3l4.72,11.18H40.24l-.81-2H35.15l-.8,2H31.12Zm2.7,6.8L37.3,44.41l-1.25,3.15Z"/><path class="cls-3" d="M46,40.84h3.25l2.65,4.3,2.65-4.3h3.25v11.1H54.78V45.57l-2.84,4.34h-.06L49.05,45.6v6.34H46Z"/><path class="cls-3" d="M61.23,40.84H66c2.8,0,4.61,1.44,4.61,3.9v0c0,2.62-2,4-4.77,4H64.31v3.17H61.23Zm4.54,5.52c1.09,0,1.76-.57,1.76-1.44v0c0-1-.67-1.46-1.78-1.46H64.31v2.94Z"/><path class="cls-3" d="M79.15,40.84h4.76c2.8,0,4.61,1.44,4.61,3.9v0c0,2.62-2,4-4.77,4H82.23v3.17H79.15Zm4.53,5.52c1.1,0,1.76-.57,1.76-1.44v0c0-1-.66-1.46-1.77-1.46H82.23v2.94Z"/><path class="cls-3" d="M90.87,46.42v0a6,6,0,0,1,11.95,0v0a6,6,0,0,1-11.95,0Zm8.81,0v0a2.88,2.88,0,0,0-2.85-3,2.84,2.84,0,0,0-2.81,3v0a2.89,2.89,0,0,0,2.84,3A2.83,2.83,0,0,0,99.68,46.42Z"/><path class="cls-3" d="M105,50.29l1.72-2a5.66,5.66,0,0,0,3.59,1.34c.83,0,1.27-.29,1.27-.76v0c0-.46-.36-.71-1.87-1.06-2.36-.54-4.18-1.2-4.18-3.49v0c0-2.06,1.63-3.55,4.29-3.55a7,7,0,0,1,4.57,1.47l-1.54,2.18a5.51,5.51,0,0,0-3.11-1.1c-.74,0-1.11.32-1.11.72v0c0,.51.38.73,1.92,1.08,2.56.55,4.14,1.38,4.14,3.45v0c0,2.27-1.79,3.62-4.49,3.62A7.78,7.78,0,0,1,105,50.29Z"/><path class="cls-3" d="M120.33,43.54H117v-2.7h9.74v2.7h-3.33v8.4h-3.08Z"/><path class="cls-4" d="M10.89,7.43H14v4.15h4V7.43H21v11.1H17.92V14.31H14v4.22H10.89Z"/><path class="cls-4" d="M24.39,7.43h8.93v2.62H27.43v1.68h5.33v2.42H27.43v1.76h6v2.62h-9Z"/><path class="cls-4" d="M36.39,7.43h3.08v8.4h5.37v2.7H36.39Z"/><path class="cls-4" d="M47.59,7.43h3.07v8.4H56v2.7H47.59Z"/><path class="cls-4" d="M58.4,13v0a6,6,0,0,1,12,0v0a6,6,0,0,1-12,0Zm8.82,0v0a2.89,2.89,0,0,0-2.86-3,2.83,2.83,0,0,0-2.8,3v0a2.88,2.88,0,0,0,2.84,3A2.84,2.84,0,0,0,67.22,13Z"/></g></g></svg>